grf
version=1
nRows=11
nColumns=73
inDegrees=yes
endheader
time	ground_force_1_vx	ground_force_1_vy	ground_force_1_vz	ground_force_1_px	ground_force_1_py	ground_force_1_pz	ground_moment_1_mx	ground_moment_1_my	ground_moment_1_mz	ground_force_2_vx	ground_force_2_vy	ground_force_2_vz	ground_force_2_px	ground_force_2_py	ground_force_2_pz	ground_moment_2_mx	ground_moment_2_my	ground_moment_2_mz	ground_force_3_vx	ground_force_3_vy	ground_force_3_vz	ground_force_3_px	ground_force_3_py	ground_force_3_pz	ground_moment_3_mx	ground_moment_3_my	ground_moment_3_mz	ground_force_4_vx	ground_force_4_vy	ground_force_4_vz	ground_force_4_px	ground_force_4_py	ground_force_4_pz	ground_moment_4_mx	ground_moment_4_my	ground_moment_4_mz	ground_force_5_vx	ground_force_5_vy	ground_force_5_vz	ground_force_5_px	ground_force_5_py	ground_force_5_pz	ground_moment_5_mx	ground_moment_5_my	ground_moment_5_mz	ground_force_6_vx	ground_force_6_vy	ground_force_6_vz	ground_force_6_px	ground_force_6_py	ground_force_6_pz	ground_moment_6_mx	ground_moment_6_my	ground_moment_6_mz	ground_force_7_vx	ground_force_7_vy	ground_force_7_vz	ground_force_7_px	ground_force_7_py	ground_force_7_pz	ground_moment_7_mx	ground_moment_7_my	ground_moment_7_mz	ground_force_8_vx	ground_force_8_vy	ground_force_8_vz	ground_force_8_px	ground_force_8_py	ground_force_8_pz	ground_moment_8_mx	ground_moment_8_my	ground_moment_8_mz
1.968000	1.895991	84.140920	-0.007506	0.731809	0.000000	0.299694	0.000000	0.118126	0.000000	72.403718	558.549260	-0.657612	0.259708	0.000000	0.385875	-0.000000	2.360088	-0.000000	2.037938	82.123697	0.190651	0.735230	0.000000	0.301315	-0.000000	0.127997	0.000000	72.387546	558.513816	-0.629690	0.257728	0.000000	0.384449	-0.000000	2.353458	0.000000	-2.107026	68.608746	-1.059390	0.734270	0.000000	0.304841	-0.000000	0.551798	0.000000	70.936170	561.360976	-1.036026	0.262110	0.000000	0.385977	-0.000000	2.332540	-0.000000	1.060916	68.308661	-2.333107	0.663967	0.000000	0.344561	-0.000000	3.178305	-0.000000	70.825176	561.139108	-1.442790	0.266034	0.000000	0.385877	-0.000000	2.418553	-0.000000
1.969000	3.660794	89.765320	0.224807	0.736926	0.000000	0.299433	0.000000	0.059460	0.000000	73.084524	557.748161	-0.523566	0.258676	0.000000	0.385857	-0.000000	2.355835	-0.000000	3.874114	87.905868	0.406270	0.738898	0.000000	0.300913	-0.000000	0.063984	0.000000	73.072148	557.700054	-0.496084	0.256687	0.000000	0.384432	-0.000000	2.349480	-0.000000	-0.441770	74.235670	-0.710385	0.736187	0.000000	0.303844	-0.000000	0.473830	0.000000	71.598438	560.677903	-0.913046	0.261078	0.000000	0.385961	-0.000000	2.322228	-0.000000	2.041057	73.815568	-1.742159	0.680039	0.000000	0.335515	-0.000000	2.591985	-0.000000	71.539378	560.388272	-1.309935	0.264971	0.000000	0.385864	-0.000000	2.400130	-0.000000
1.970000	5.461161	95.394728	0.392731	0.741224	0.000000	0.299238	0.000000	-0.002927	0.000000	73.776005	556.879592	-0.389711	0.257639	0.000000	0.385841	-0.000000	2.351315	-0.000000	5.731118	93.694214	0.557623	0.742007	0.000000	0.300624	-0.000000	-0.002949	0.000000	73.766899	556.821802	-0.362996	0.255641	0.000000	0.384416	-0.000000	2.345291	-0.000000	1.302240	79.960556	-0.397605	0.737861	0.000000	0.302967	-0.000000	0.387121	0.000000	72.275333	559.934468	-0.785313	0.260040	0.000000	0.385947	-0.000000	2.314173	-0.000000	3.176542	79.413975	-1.216713	0.694289	0.000000	0.327474	-0.000000	2.048584	-0.000000	72.264929	559.579948	-1.172531	0.263905	0.000000	0.385853	-0.000000	2.384588	-0.000000
1.971000	7.274313	100.980003	0.487179	0.744761	0.000000	0.299113	0.000000	-0.065449	0.000000	74.475716	555.941356	-0.258644	0.256596	0.000000	0.385827	-0.000000	2.345270	-0.000000	7.587756	99.437117	0.635845	0.744589	0.000000	0.300446	-0.000000	-0.069283	0.000000	74.469395	555.876531	-0.232952	0.254589	0.000000	0.384402	-0.000000	2.339623	-0.000000	3.102776	85.738483	-0.133496	0.739279	0.000000	0.302207	-0.000000	0.294287	0.000000	72.965218	559.128661	-0.654752	0.258997	0.000000	0.385934	-0.000000	2.307561	-0.000000	4.441490	85.061846	-0.767527	0.706785	0.000000	0.320403	-0.000000	1.548957	-0.000000	73.000024	558.712595	-1.032610	0.262835	0.000000	0.385844	-0.000000	2.371128	-0.000000
1.972000	9.077777	106.472538	0.501176	0.747596	0.000000	0.299060	0.000000	-0.125347	0.000000	75.181546	554.930418	-0.132904	0.255547	0.000000	0.385814	-0.000000	2.336590	-0.000000	9.423074	105.083916	0.634140	0.746678	0.000000	0.300375	-0.000000	-0.132320	0.000000	75.177562	554.860899	-0.108429	0.253533	0.000000	0.384389	-0.000000	2.331353	-0.000000	4.937566	91.522985	0.070405	0.740446	0.000000	0.301567	-0.000000	0.198967	0.000000	73.665728	558.258592	-0.523608	0.257948	0.000000	0.385923	-0.000000	2.301222	-0.000000	5.809513	90.715181	-0.404328	0.717607	0.000000	0.314261	-0.000000	1.094542	-0.000000	73.742203	557.784672	-0.892502	0.261763	0.000000	0.385837	-0.000000	2.358580	-0.000000
1.973000	10.849261	111.825443	0.430010	0.749778	0.000000	0.299082	0.000000	-0.181006	0.000000	75.891832	553.842320	-0.014377	0.254492	0.000000	0.385801	-0.000000	2.324507	-0.000000	11.216219	110.586050	0.547938	0.748301	0.000000	0.300408	-0.000000	-0.190509	0.000000	75.889774	553.770160	0.008732	0.252471	0.000000	0.384377	-0.000000	2.319699	-0.000000	6.784669	97.266774	0.204009	0.741373	0.000000	0.301047	-0.000000	0.105023	0.000000	74.374390	557.322253	-0.394609	0.256894	0.000000	0.385912	-0.000000	2.293814	-0.000000	7.254224	96.328775	-0.135315	0.726837	0.000000	0.308997	-0.000000	0.686667	-0.000000	74.488967	556.794408	-0.754999	0.260690	0.000000	0.385830	-0.000000	2.345594	-0.000000
1.974000	12.566643	116.994430	0.270998	0.751356	0.000000	0.299181	0.000000	-0.231837	0.000000	76.605294	552.671446	0.095994	0.253434	0.000000	0.385789	-0.000000	2.308653	-0.000000	12.946423	115.897902	0.374667	0.749484	0.000000	0.300543	-0.000000	-0.243321	0.000000	76.604788	552.598431	0.117628	0.251406	0.000000	0.384365	-0.000000	2.304284	-0.000000	8.622441	102.922601	0.259303	0.742072	0.000000	0.300648	-0.000000	0.015695	0.000000	75.088985	556.316761	-0.270499	0.255835	0.000000	0.385902	-0.000000	2.284107	-0.000000	8.749329	101.857104	0.033426	0.734567	0.000000	0.304555	0.000000	0.325793	-0.000000	75.238125	555.739061	-0.622894	0.259616	0.000000	0.385825	-0.000000	2.330925	-0.000000
1.975000	14.208084	121.938373	0.023381	0.752372	0.000000	0.299355	0.000000	-0.277887	0.000000	77.320707	551.411807	0.198180	0.252375	0.000000	0.385775	-0.000000	2.289025	-0.000000	14.593110	120.977328	0.113646	0.750247	0.000000	0.300773	-0.000000	-0.290865	0.000000	77.321419	551.339465	0.218263	0.250340	0.000000	0.384352	-0.000000	2.285094	-0.000000	10.429393	108.444336	0.230700	0.742551	0.000000	0.300372	-0.000000	-0.066922	0.000000	75.807696	555.237694	-0.153375	0.254770	0.000000	0.385893	-0.000000	2.271221	0.000000	10.268578	107.255448	0.098242	0.740894	0.000000	0.300875	0.000000	0.011071	0.000000	75.987935	554.614269	-0.498317	0.258541	0.000000	0.385819	-0.000000	2.313667	-0.000000
1.976000	15.752070	126.620036	-0.311522	0.752865	0.000000	0.299600	0.000000	-0.319466	0.000000	78.036532	550.057839	0.292855	0.251315	0.000000	0.385760	-0.000000	2.265871	-0.000000	16.135931	125.786343	-0.233752	0.750612	0.000000	0.301090	-0.000000	-0.333505	0.000000	78.038170	549.987455	0.311342	0.249275	0.000000	0.384336	-0.000000	2.262368	-0.000000	12.184126	113.787999	0.114864	0.742814	0.000000	0.300217	-0.000000	-0.141918	0.000000	76.529140	554.079186	-0.044329	0.253702	0.000000	0.385882	-0.000000	2.254710	0.000000	11.785791	112.480944	0.057703	0.745919	0.000000	0.297899	0.000000	-0.259624	0.000000	76.737129	553.414156	-0.382380	0.257465	0.000000	0.385815	-0.000000	2.293350	-0.000000
1.977000	17.177311	131.007060	-0.730315	0.752876	0.000000	0.299911	0.000000	-0.356992	0.000000	78.750887	548.604771	0.381134	0.250257	0.000000	0.385743	-0.000000	2.239535	-0.000000	17.554668	130.292077	-0.664100	0.750600	0.000000	0.301486	-0.000000	-0.371718	0.000000	78.753196	548.537409	0.398004	0.248212	0.000000	0.384320	-0.000000	2.236447	-0.000000	13.865449	118.912402	-0.089602	0.742863	0.000000	0.300181	-0.000000	-0.209241	0.000000	77.252096	552.834687	0.056517	0.252632	0.000000	0.385868	-0.000000	2.234525	0.000000	13.275047	117.493268	-0.087728	0.749745	0.000000	0.295566	0.000000	-0.489309	0.000000	77.484627	552.132102	-0.275213	0.256387	0.000000	0.385810	-0.000000	2.269892	-0.000000
1.978000	18.462761	135.073047	-1.228019	0.752446	0.000000	0.300284	0.000000	-0.391018	0.000000	79.461771	547.048271	0.464334	0.249201	0.000000	0.385725	-0.000000	2.210356	-0.000000	18.829247	134.467828	-1.172408	0.750236	0.000000	0.301951	-0.000000	-0.406104	0.000000	79.464535	546.984790	0.479592	0.247151	0.000000	0.384302	-0.000000	2.207664	-0.000000	15.452508	123.779855	-0.382160	0.742698	0.000000	0.300256	-0.000000	-0.269257	0.000000	77.975076	551.497788	0.149799	0.251563	0.000000	0.385852	-0.000000	2.210887	0.000000	14.710874	122.255359	-0.335719	0.752473	0.000000	0.293817	0.000000	-0.681404	0.000000	78.229110	550.761586	-0.176179	0.255308	0.000000	0.385805	-0.000000	2.243482	-0.000000
